<svg xmlns="http://www.w3.org/2000/svg" fill="none" viewBox="0 0 32 32"><rect width="32" height="32" fill="#0F172A" rx="6"/><circle cx="16" cy="16" r="10" fill="url(#a)" fill-opacity=".5"/><g fill="#FDE047"><path d="M6 3c0 2-1 3-3 3 2 0 3 1 3 3 0-2 1-3 3-3-2 0-3-1-3-3ZM26 5c0 2.5-1.5 4-4 4 2.5 0 4 1.5 4 4 0-2.5 1.5-4 4-4-2.5 0-4-1.5-4-4ZM7 23c0 2-1 3-3 3 2 0 3 1 3 3 0-2 1-3 3-3-2 0-3-1-3-3ZM25 24c0 1.5-1 2.5-2.5 2.5 1.5 0 2.5 1 2.5 2.5 0-1.5 1-2.5 2.5-2.5-1.5 0-2.5-1-2.5-2.5ZM29 18c0 .8-.5 1.3-1.3 1.3.8 0 1.3.5 1.3 1.3 0-.8.5-1.3 1.3-1.3-.8 0-1.3-.5-1.3-1.3Z"/></g><path fill="url(#b)" d="m16 4 2.8 9.2L28 16l-9.2 2.8L16 28l-2.8-9.2L4 16l9.2-2.8L16 4Z"/><path fill="#FFF" fill-opacity=".6" d="m16 8 1.5 6.5L24 16l-6.5 1.5L16 24l-1.5-6.5L8 16l6.5-1.5L16 8Z"/><defs><radialGradient id="a" cx="0" cy="0" r="1" gradientTransform="matrix(0 10 -10 0 16 16)" gradientUnits="userSpaceOnUse"><stop stop-color="#FACC15"/><stop offset="1" stop-color="#FACC15" stop-opacity="0"/></radialGradient><linearGradient id="b" x1="16" x2="16" y1="4" y2="28" gradientUnits="userSpaceOnUse"><stop stop-color="#FDE047"/><stop offset="1" stop-color="#EAB308"/></linearGradient></defs></svg>

